<svg xmlns="http://www.w3.org/2000/svg" xmlns:xlink="http://www.w3.org/1999/xlink" width="1920" zoomAndPan="magnify" viewBox="0 0 1440 809.999993" height="1080" preserveAspectRatio="xMidYMid meet" version="1.0"><defs><clipPath id="3933a2dfaf"><path d="M 332 47 L 1199 47 L 1199 782 L 332 782 Z M 332 47 " clip-rule="nonzero"/></clipPath><clipPath id="6b20c4d366"><path d="M 198.160156 273.105469 L 1102.761719 26.941406 L 1241.601562 537.136719 L 336.996094 783.304688 Z M 198.160156 273.105469 " clip-rule="nonzero"/></clipPath><clipPath id="d39ca9b023"><path d="M 198.160156 273.105469 L 1102.761719 26.941406 L 1241.601562 537.136719 L 336.996094 783.304688 Z M 198.160156 273.105469 " clip-rule="nonzero"/></clipPath><clipPath id="072382d461"><path d="M 470 157 L 1159 157 L 1159 739 L 470 739 Z M 470 157 " clip-rule="nonzero"/></clipPath><clipPath id="691bf8d94a"><path d="M 198.160156 273.105469 L 1102.761719 26.941406 L 1241.601562 537.136719 L 336.996094 783.304688 Z M 198.160156 273.105469 " clip-rule="nonzero"/></clipPath><clipPath id="cb92a5a6a3"><path d="M 198.160156 273.105469 L 1102.761719 26.941406 L 1241.601562 537.136719 L 336.996094 783.304688 Z M 198.160156 273.105469 " clip-rule="nonzero"/></clipPath><clipPath id="08f11cff9e"><path d="M 340 55 L 1134 55 L 1134 774 L 340 774 Z M 340 55 " clip-rule="nonzero"/></clipPath><clipPath id="82a88b4f87"><path d="M 198.160156 273.105469 L 1102.761719 26.941406 L 1241.601562 537.136719 L 336.996094 783.304688 Z M 198.160156 273.105469 " clip-rule="nonzero"/></clipPath><clipPath id="b3f6c80e74"><path d="M 198.160156 273.105469 L 1102.761719 26.941406 L 1241.601562 537.136719 L 336.996094 783.304688 Z M 198.160156 273.105469 " clip-rule="nonzero"/></clipPath><clipPath id="60b0dff2a7"><path d="M 678 254 L 1191 254 L 1191 682 L 678 682 Z M 678 254 " clip-rule="nonzero"/></clipPath><clipPath id="5f1145ea68"><path d="M 198.160156 273.105469 L 1102.761719 26.941406 L 1241.601562 537.136719 L 336.996094 783.304688 Z M 198.160156 273.105469 " clip-rule="nonzero"/></clipPath><clipPath id="c36eed54e3"><path d="M 198.160156 273.105469 L 1102.761719 26.941406 L 1241.601562 537.136719 L 336.996094 783.304688 Z M 198.160156 273.105469 " clip-rule="nonzero"/></clipPath></defs><g clip-path="url(#3933a2dfaf)"><g clip-path="url(#6b20c4d366)"><g clip-path="url(#d39ca9b023)"><path fill="#ffffff" d="M 776.011719 663.886719 L 345.273438 781.101562 C 342.96875 781.730469 340.519531 781.328125 338.535156 780.003906 C 336.550781 778.679688 335.257812 776.554688 334.949219 774.179688 C 322.78125 676.242188 362.523438 582.898438 449.882812 504.230469 C 522.667969 438.6875 603.601562 404.390625 628.652344 396.703125 C 634.847656 394.796875 641.472656 392.996094 648.476562 391.070312 C 706.289062 375.277344 785.453125 353.632812 837.699219 225.503906 C 863.175781 163.019531 916.875 112.382812 993.003906 79.078125 C 1050.082031 54.089844 1098.976562 47.605469 1101.023438 47.34375 C 1105.105469 46.828125 1108.925781 49.378906 1110.007812 53.347656 L 1166.46875 260.832031 L 1198.246094 384.519531 C 1198.953125 387.261719 1198.195312 390.164062 1196.257812 392.214844 C 1194.320312 394.269531 1191.457031 395.167969 1188.675781 394.636719 C 1187.125 394.324219 1032.726562 364.535156 1015.449219 438.207031 C 995.128906 524.882812 969.691406 537.117188 848.875 561.132812 C 810.976562 568.648438 787.09375 582.585938 777.894531 602.511719 C 766.945312 626.269531 780.867188 651.664062 781 651.925781 C 782.238281 654.144531 782.386719 656.800781 781.417969 659.144531 C 780.453125 661.492188 778.453125 663.242188 776 663.910156 Z M 350.269531 762.695312 L 762.46875 650.523438 C 758.0625 638.621094 753.105469 617.207031 762.910156 595.785156 C 774.375 570.71875 802.25 553.617188 845.695312 545.007812 C 961.25 522.046875 981.128906 512.671875 999.472656 434.46875 C 1017.222656 358.742188 1138.875 370.34375 1179.1875 376.363281 L 1150.582031 265.058594 L 1096.085938 64.804688 C 1080.660156 67.519531 1041.890625 75.609375 999.199219 94.34375 C 949.0625 116.355469 882.984375 158.066406 852.949219 231.742188 C 797.636719 367.386719 710.503906 391.199219 652.835938 406.949219 C 645.957031 408.824219 639.445312 410.59375 633.488281 412.433594 C 571.921875 431.328125 331.578125 552.261719 350.269531 762.695312 Z M 350.269531 762.695312 " fill-opacity="1" fill-rule="nonzero"/></g></g></g><g clip-path="url(#072382d461)"><g clip-path="url(#691bf8d94a)"><g clip-path="url(#cb92a5a6a3)"><path fill="#e4ae4f" d="M 1158.523438 263.015625 C 1158.523438 263.015625 1061.484375 226.320312 1006.402344 328.082031 C 951.320312 429.847656 949.625 481.574219 847.859375 513.214844 C 746.09375 544.851562 677.210938 574.125 680.734375 681.289062 L 471.574219 738.210938 C 471.574219 738.210938 449.199219 598.03125 615.867188 515.207031 C 782.535156 432.382812 819.839844 469.433594 875.921875 371.34375 C 932.003906 273.25 978.9375 130.546875 1131.066406 162.105469 Z M 1158.523438 263.015625 " fill-opacity="1" fill-rule="nonzero"/></g></g></g><g clip-path="url(#08f11cff9e)"><g clip-path="url(#82a88b4f87)"><g clip-path="url(#b3f6c80e74)"><path fill="#42bf9c" d="M 1102.0625 55.527344 C 1102.0625 55.527344 905.605469 80.796875 845.332031 228.640625 C 785.054688 376.484375 687.460938 387.261719 631.074219 404.585938 C 574.6875 421.914062 314.949219 546.480469 343.113281 773.167969 L 471.574219 738.210938 C 471.574219 738.210938 478.945312 575.5625 620.375 523.691406 C 761.824219 471.820312 863.898438 456.390625 902.390625 347.902344 C 940.882812 239.414062 1015.101562 140.332031 1133.542969 171.203125 Z M 1102.0625 55.527344 " fill-opacity="1" fill-rule="nonzero"/></g></g></g><g clip-path="url(#60b0dff2a7)"><g clip-path="url(#5f1145ea68)"><g clip-path="url(#c36eed54e3)"><path fill="#e85c4f" d="M 773.851562 655.953125 C 773.851562 655.953125 728.832031 576.570312 847.289062 553.058594 C 965.75 529.546875 988.15625 518.691406 1007.46875 436.335938 C 1026.761719 353.984375 1190.308594 386.578125 1190.308594 386.578125 L 1156.941406 256.824219 C 1156.941406 256.824219 1067.648438 240.523438 1017.277344 291.242188 C 966.910156 341.964844 967.59375 472.402344 880.492188 496.105469 C 793.386719 519.808594 657.5625 563.671875 680.753906 681.285156 Z M 773.851562 655.953125 " fill-opacity="1" fill-rule="nonzero"/></g></g></g></svg>