<svg xmlns="http://www.w3.org/2000/svg" xmlns:xlink="http://www.w3.org/1999/xlink" width="1366" zoomAndPan="magnify" viewBox="0 0 1024.5 576" height="768" preserveAspectRatio="xMidYMid meet" version="1.0"><defs><clipPath id="6b80ac1909"><path d="M 268.5 57.742188 L 756 57.742188 L 756 545.242188 L 268.5 545.242188 Z M 268.5 57.742188 " clip-rule="nonzero"/></clipPath></defs><g clip-path="url(#6b80ac1909)"><path fill="#e85c4f" d="M 756 301.492188 C 756 436.113281 646.871094 545.242188 512.25 545.242188 C 377.628906 545.242188 268.5 436.113281 268.5 301.492188 C 268.5 166.871094 377.628906 57.742188 512.25 57.742188 C 646.871094 57.742188 756 166.871094 756 301.492188 " fill-opacity="1" fill-rule="nonzero"/></g><path fill="#ffffff" d="M 420.167969 407.378906 C 416.632812 407.378906 413.097656 406.03125 410.402344 403.335938 C 405.011719 397.945312 405.011719 389.203125 410.402344 383.8125 L 594.570312 199.644531 C 599.960938 194.253906 608.703125 194.253906 614.097656 199.644531 C 619.488281 205.035156 619.488281 213.777344 614.097656 219.167969 L 429.929688 403.335938 C 427.234375 406.03125 423.699219 407.378906 420.167969 407.378906 " fill-opacity="1" fill-rule="nonzero"/><path fill="#ffffff" d="M 604.332031 407.378906 C 600.800781 407.378906 597.265625 406.03125 594.570312 403.335938 L 410.402344 219.167969 C 405.011719 213.777344 405.011719 205.035156 410.402344 199.644531 C 415.796875 194.253906 424.539062 194.253906 429.929688 199.644531 L 614.097656 383.8125 C 619.488281 389.203125 619.488281 397.945312 614.097656 403.335938 C 611.398438 406.03125 607.867188 407.378906 604.332031 407.378906 " fill-opacity="1" fill-rule="nonzero"/></svg>