<svg xmlns="http://www.w3.org/2000/svg" xmlns:xlink="http://www.w3.org/1999/xlink" width="1366" zoomAndPan="magnify" viewBox="0 0 1024.5 576" height="768" preserveAspectRatio="xMidYMid meet" version="1.0"><defs><clipPath id="fd8ef9144c"><path d="M 268.5 67.546875 L 756 67.546875 L 756 555.046875 L 268.5 555.046875 Z M 268.5 67.546875 " clip-rule="nonzero"/></clipPath></defs><g clip-path="url(#fd8ef9144c)"><path fill="#42bf9c" d="M 756 311.296875 C 756 445.914062 646.867188 555.046875 512.25 555.046875 C 377.632812 555.046875 268.5 445.914062 268.5 311.296875 C 268.5 176.679688 377.632812 67.546875 512.25 67.546875 C 646.867188 67.546875 756 176.679688 756 311.296875 " fill-opacity="1" fill-rule="nonzero"/></g><path fill="#ffffff" d="M 503.5625 425.390625 L 416.214844 336.222656 C 410.878906 330.777344 410.96875 322.039062 416.417969 316.703125 C 421.863281 311.367188 430.605469 311.457031 435.941406 316.902344 L 499.089844 381.367188 L 608.484375 211.734375 C 612.617188 205.324219 621.160156 203.476562 627.570312 207.613281 C 633.980469 211.746094 635.824219 220.285156 631.691406 226.695312 L 503.5625 425.390625 " fill-opacity="1" fill-rule="nonzero"/></svg>