<svg xmlns="http://www.w3.org/2000/svg" xmlns:xlink="http://www.w3.org/1999/xlink" width="1366" zoomAndPan="magnify" viewBox="0 0 1024.5 576" height="768" preserveAspectRatio="xMidYMid meet" version="1.0"><defs><clipPath id="dded0e309a"><path d="M 268.5 46 L 753 46 L 753 527 L 268.5 527 Z M 268.5 46 " clip-rule="nonzero"/></clipPath></defs><g clip-path="url(#dded0e309a)"><path fill="#746666" d="M 688.863281 524.261719 L 575.199219 410.597656 C 544.046875 430.980469 506.8125 442.933594 466.640625 442.933594 C 357.09375 442.933594 268.5 354.144531 268.5 244.597656 C 268.5 135.257812 357.082031 46.46875 466.640625 46.46875 C 576 46.46875 664.757812 135.257812 664.757812 244.597656 C 664.757812 282.839844 653.988281 318.472656 635.363281 348.65625 L 749.835938 463.109375 C 755.894531 469.003906 750.8125 483.703125 738.652344 495.832031 L 721.605469 512.921875 C 709.441406 525.050781 694.746094 530.132812 688.863281 524.261719 Z M 598.917969 244.597656 C 598.917969 171.492188 539.722656 112.308594 466.628906 112.308594 C 393.523438 112.308594 334.152344 171.492188 334.152344 244.597656 C 334.152344 317.703125 393.523438 377.074219 466.628906 377.074219 C 539.722656 377.074219 598.917969 317.714844 598.917969 244.597656 Z M 598.917969 244.597656 " fill-opacity="1" fill-rule="nonzero"/></g></svg>