<svg xmlns="http://www.w3.org/2000/svg" xmlns:xlink="http://www.w3.org/1999/xlink" width="1366" zoomAndPan="magnify" viewBox="0 0 1024.5 576" height="768" preserveAspectRatio="xMidYMid meet" version="1.0"><defs><clipPath id="6817369f72"><path d="M 296.527344 59 L 727.777344 59 L 727.777344 545.242188 L 296.527344 545.242188 Z M 296.527344 59 " clip-rule="nonzero"/></clipPath></defs><g clip-path="url(#6817369f72)"><path fill="#746666" d="M 512.152344 545.085938 C 509.742188 545.085938 507.332031 544.613281 505.058594 543.671875 C 376.429688 490.148438 296.519531 387.285156 296.519531 275.222656 L 296.519531 190.191406 C 296.519531 164.742188 311.570312 141.679688 334.863281 131.445312 L 485.699219 65.144531 C 502.035156 57.964844 520.785156 57.941406 537.140625 65.074219 L 689.28125 131.464844 C 712.667969 141.667969 727.777344 164.753906 727.777344 190.28125 L 727.777344 275.226562 C 727.777344 387.292969 647.871094 490.152344 519.242188 543.675781 C 516.972656 544.621094 514.5625 545.089844 512.144531 545.089844 Z M 511.503906 96.683594 C 507.769531 96.683594 504.039062 97.449219 500.5625 98.976562 L 349.722656 165.273438 C 339.847656 169.613281 333.46875 179.394531 333.46875 190.1875 L 333.46875 275.21875 C 333.46875 370.058594 401.726562 458.121094 512.152344 506.515625 C 622.582031 458.125 690.839844 370.0625 690.839844 275.21875 L 690.839844 190.273438 C 690.839844 179.449219 684.433594 169.660156 674.515625 165.332031 L 522.375 98.941406 C 518.917969 97.4375 515.207031 96.679688 511.5 96.679688 Z M 511.503906 96.683594 " fill-opacity="1" fill-rule="nonzero"/></g><path fill="#746666" d="M 494.5625 376.496094 C 490.445312 376.496094 486.308594 375.125 482.886719 372.328125 L 421.664062 322.285156 C 413.765625 315.828125 412.589844 304.1875 419.046875 296.285156 C 425.496094 288.382812 437.136719 287.207031 445.035156 293.667969 L 492.367188 332.355469 L 577.007812 234.6875 C 583.691406 226.976562 595.355469 226.144531 603.0625 232.832031 C 610.773438 239.519531 611.601562 251.1875 604.917969 258.898438 L 508.527344 370.125 C 504.882812 374.332031 499.738281 376.5 494.5625 376.5 Z M 494.5625 376.496094 " fill-opacity="1" fill-rule="nonzero"/></svg>