<svg xmlns="http://www.w3.org/2000/svg" xmlns:xlink="http://www.w3.org/1999/xlink" width="1366" zoomAndPan="magnify" viewBox="0 0 1024.5 576" height="768" preserveAspectRatio="xMidYMid meet" version="1.0"><defs><clipPath id="40e384b6b3"><path d="M 269 318 L 458 318 L 458 531.890625 L 269 531.890625 Z M 269 318 " clip-rule="nonzero"/></clipPath><clipPath id="5b772b013d"><path d="M 567 318 L 756 318 L 756 531.890625 L 567 531.890625 Z M 567 318 " clip-rule="nonzero"/></clipPath><clipPath id="c34b7974a1"><path d="M 418 44.390625 L 608 44.390625 L 608 259 L 418 259 Z M 418 44.390625 " clip-rule="nonzero"/></clipPath></defs><g clip-path="url(#40e384b6b3)"><path fill="#ffffff" d="M 396.289062 414.167969 C 409.042969 404.351562 417.265625 388.996094 417.265625 371.710938 C 417.265625 342.175781 393.1875 318.09375 363.652344 318.09375 C 334.03125 318.09375 310.035156 342.175781 310.035156 371.710938 C 310.035156 388.996094 318.257812 404.351562 331.011719 414.167969 C 301.140625 424.824219 277.730469 449.660156 269.757812 481.796875 C 268.75 484.820312 269.589844 488.257812 271.855469 490.441406 C 295.183594 516.535156 328.578125 531.472656 363.652344 531.472656 C 398.890625 531.472656 432.539062 516.367188 455.863281 490.019531 C 457.710938 488.007812 458.382812 485.070312 457.792969 482.46875 C 449.824219 449.996094 426.328125 424.824219 396.289062 414.167969 Z M 326.816406 371.710938 C 326.816406 351.40625 343.34375 334.875 363.652344 334.875 C 383.957031 334.875 400.484375 351.40625 400.484375 371.710938 C 400.484375 392.015625 384.039062 408.464844 363.734375 408.546875 C 363.652344 408.546875 363.652344 408.546875 363.566406 408.546875 C 363.484375 408.546875 363.484375 408.546875 363.398438 408.546875 C 343.261719 408.464844 326.816406 391.933594 326.816406 371.710938 Z M 363.652344 514.691406 C 334.703125 514.691406 307.011719 502.859375 287.042969 482.132812 C 297.195312 448.488281 327.90625 425.414062 363.398438 425.328125 C 363.484375 425.328125 363.566406 425.328125 363.652344 425.328125 C 363.734375 425.328125 363.820312 425.328125 363.902344 425.328125 C 399.394531 425.414062 430.1875 448.570312 440.257812 482.21875 C 420.289062 502.859375 392.597656 514.691406 363.652344 514.691406 Z M 363.652344 514.691406 " fill-opacity="1" fill-rule="nonzero"/></g><g clip-path="url(#5b772b013d)"><path fill="#ffffff" d="M 755.75 482.46875 C 747.859375 449.996094 724.367188 424.824219 694.328125 414.167969 C 707.082031 404.351562 715.304688 388.996094 715.304688 371.710938 C 715.304688 342.175781 691.222656 318.09375 661.6875 318.09375 C 632.152344 318.09375 608.070312 342.175781 608.070312 371.710938 C 608.070312 388.996094 616.292969 404.351562 629.046875 414.167969 C 599.175781 424.824219 575.851562 449.660156 567.796875 481.796875 C 566.789062 484.820312 567.628906 488.257812 569.894531 490.441406 C 593.21875 516.535156 626.617188 531.472656 661.6875 531.472656 C 696.929688 531.472656 730.574219 516.367188 753.902344 490.019531 C 755.664062 488.007812 756.417969 485.070312 755.75 482.46875 Z M 624.851562 371.710938 C 624.851562 351.40625 641.382812 334.875 661.6875 334.875 C 681.992188 334.875 698.523438 351.40625 698.523438 371.710938 C 698.523438 392.015625 682.078125 408.464844 661.773438 408.546875 C 661.6875 408.546875 661.6875 408.546875 661.605469 408.546875 C 661.519531 408.546875 661.519531 408.546875 661.4375 408.546875 C 641.300781 408.464844 624.851562 391.933594 624.851562 371.710938 Z M 661.6875 514.691406 C 632.742188 514.691406 605.050781 502.859375 585.082031 482.132812 C 595.234375 448.488281 625.945312 425.414062 661.4375 425.328125 C 661.519531 425.328125 661.605469 425.328125 661.6875 425.328125 C 661.773438 425.328125 661.855469 425.328125 661.941406 425.328125 C 697.433594 425.414062 728.226562 448.570312 738.296875 482.21875 C 718.324219 502.859375 690.636719 514.691406 661.6875 514.691406 Z M 661.6875 514.691406 " fill-opacity="1" fill-rule="nonzero"/></g><g clip-path="url(#c34b7974a1)"><path fill="#ffffff" d="M 420.960938 217.238281 C 444.285156 243.25 477.597656 258.1875 512.667969 258.1875 C 547.910156 258.1875 581.558594 243.082031 604.882812 216.734375 C 606.730469 214.722656 607.402344 211.785156 606.8125 209.183594 C 598.925781 176.710938 575.433594 151.539062 545.394531 140.882812 C 558.148438 131.066406 566.371094 115.710938 566.371094 98.425781 C 566.285156 68.890625 542.289062 44.808594 512.667969 44.808594 C 483.050781 44.808594 459.054688 68.890625 459.054688 98.425781 C 459.054688 115.710938 467.277344 131.066406 480.03125 140.882812 C 450.242188 151.539062 426.832031 176.375 418.777344 208.511719 C 417.769531 211.535156 418.609375 215.058594 420.960938 217.238281 Z M 475.835938 98.425781 C 475.835938 78.121094 492.363281 61.589844 512.667969 61.589844 C 532.976562 61.589844 549.503906 78.121094 549.503906 98.425781 C 549.503906 118.730469 533.058594 135.179688 512.753906 135.261719 C 512.667969 135.261719 512.667969 135.261719 512.585938 135.261719 C 512.5 135.261719 512.5 135.261719 512.417969 135.261719 C 492.28125 135.179688 475.835938 118.730469 475.835938 98.425781 Z M 512.417969 152.042969 C 512.5 152.042969 512.585938 152.042969 512.667969 152.042969 C 512.753906 152.042969 512.835938 152.042969 512.921875 152.042969 C 548.414062 152.128906 579.207031 175.285156 589.277344 208.933594 C 569.308594 229.65625 541.617188 241.402344 512.667969 241.402344 C 483.722656 241.402344 456.03125 229.574219 436.0625 208.847656 C 446.214844 175.285156 477.007812 152.210938 512.417969 152.042969 Z M 512.417969 152.042969 " fill-opacity="1" fill-rule="nonzero"/></g><path fill="#ffffff" d="M 587.011719 380.101562 C 590.117188 380.101562 593.050781 378.425781 594.5625 375.402344 C 595.148438 374.230469 595.402344 372.96875 595.402344 371.710938 C 595.402344 368.605469 593.722656 365.671875 590.703125 364.160156 L 521.058594 329.589844 L 521.058594 279.078125 C 521.058594 274.464844 517.285156 270.6875 512.667969 270.6875 C 508.054688 270.6875 504.277344 274.464844 504.277344 279.078125 L 504.277344 329.589844 L 434.636719 364.160156 C 430.441406 366.175781 428.761719 371.207031 430.859375 375.402344 C 432.957031 379.515625 437.992188 381.277344 442.105469 379.179688 L 512.667969 344.191406 L 583.234375 379.179688 C 584.492188 379.765625 585.753906 380.101562 587.011719 380.101562 Z M 587.011719 380.101562 " fill-opacity="1" fill-rule="nonzero"/></svg>